<svg xmlns="http://www.w3.org/2000/svg" width="204.667" height="77.411" viewBox="0 0 204.667 77.411">
  <g id="LOGO_CREATEASY" data-name="LOGO CREATEASY" transform="translate(-69.945 -164.879)">
    <path id="Caminho_7" data-name="Caminho 7" d="M80.955,217.892,94.18,189.038l-2.631-1.166L75.5,222.894l51.1-18.234a6.376,6.376,0,0,1-1.043-2.683Z" transform="translate(-3.933 -16.289)" fill="#fff"/>
    <g id="Grupo_13" data-name="Grupo 13" transform="translate(183.891 206.9)">
      <g id="Grupo_12" data-name="Grupo 12">
        <g id="Grupo_11" data-name="Grupo 11">
          <g id="Grupo_10" data-name="Grupo 10">
            <path id="Caminho_8" data-name="Caminho 8" d="M545.545,309.011a21,21,0,0,0-5.469.785l-1.962.54c-.45.1-.62.343-.512.785l1.067,5.1a.547.547,0,0,0,.746.442l1.913-.54a13.123,13.123,0,0,1,3.234-.491c2.8,0,4.5,1.227,4.513,3.338l-.009.1h-4.614c-6.086,0-9.959,2.7-10.365,7.265-.441,4.958,2.786,7.853,8.627,7.853a8.857,8.857,0,0,0,5.467-1.865c.852-.7,1.514-.575,1.571,0,.035.362.062.515.088.8a.578.578,0,0,0,.629.527h4.073a.658.658,0,0,0,.695-.638l1.289-14.48C557.059,312.545,553.006,309.011,545.545,309.011Zm3.081,15.02c-.535,2.7-2.067,3.927-4.62,3.927-1.767,0-2.728-.785-2.606-2.16a2.382,2.382,0,0,1,2.62-1.865h4.614Z" transform="translate(-512.686 -309.011)" fill="#fff"/>
            <path id="Caminho_9" data-name="Caminho 9" d="M626.671,319.122l-4.085-.982c-.813-.245-1.206-.785-1.163-1.276.07-.785.845-1.227,2.122-1.227a24.685,24.685,0,0,1,4.521.491l1.486.364c1.392.238,2.191-1.2,2.641-2.624a4.273,4.273,0,0,0,.018-2.721c-.269-.853-.91-1.138-1.765-1.351a33.292,33.292,0,0,0-6.311-.785c-6.037,0-9.829,2.9-10.27,7.853-.332,3.73,1.635,5.89,6.3,6.97l3.79.982c.96.246,1.349.834,1.292,1.473-.074.834-.8,1.325-2.032,1.325a30.527,30.527,0,0,1-5.968-.785l-2.255-.589a.585.585,0,0,0-.776.442l-1.936,5.2a.514.514,0,0,0,.372.785l2.545.638a30.115,30.115,0,0,0,7.431.884c5.988,0,9.784-2.945,10.225-7.9C633.2,322.46,631.282,320.251,626.671,319.122Z" transform="translate(-568.059 -309.011)" fill="#fff"/>
            <path id="Caminho_10" data-name="Caminho 10" d="M479.614,327.025q-.094-.589-.7-.442l-3,.638a18.577,18.577,0,0,1-3.172.344c-2.307,0-3.469-.736-4.248-2.455l5.817-.834c5.715-.786,8.664-3.043,9.014-6.97.45-5.056-3.041-8.3-9.177-8.3-7.706,0-12.605,4.859-13.3,12.615-.686,7.706,3.25,12.566,11.3,12.566a22.23,22.23,0,0,0,4.711-.54l3.109-.736a.648.648,0,0,0,.561-.785Zm-6.349-11.388q2.945,0,2.788,1.767c-.1,1.08-.894,1.767-2.428,1.914l-5.175.785A4.821,4.821,0,0,1,473.265,315.637Z" transform="translate(-460.777 -309.011)" fill="#fff"/>
          </g>
        </g>
        <path id="Caminho_11" data-name="Caminho 11" d="M694.769,345.222a.817.817,0,0,1-.78.491h-6.577c-.491,0-.661-.294-.425-.736l2.191-4.761c2.071-4.516,1.77-7.755.058-13.891L685.1,311.6c-.157-.442.065-.736.557-.736h6.725a.661.661,0,0,1,.692.491s.885,3.335,1.4,5.553,1,4.753,1.688,8.191c.11.459.509.324.635-.036.411-1.138,1.811-4.572,3.268-8.034s2.277-5.625,2.277-5.625a.8.8,0,0,1,.785-.54h6.724c.491,0,.661.294.425.736Z" transform="translate(-619.662 -310.323)" fill="#fff"/>
      </g>
    </g>
    <g id="Grupo_14" data-name="Grupo 14" transform="translate(92.688 200.667)">
      <path id="Caminho_12" data-name="Caminho 12" d="M163.751,334.286a10.415,10.415,0,0,1-2.75,1.138,14.949,14.949,0,0,1-4.2.546,8.336,8.336,0,0,1-6.382-2.366,9.914,9.914,0,0,1-2.443-6.507,18.084,18.084,0,0,1,.648-5.938,14.274,14.274,0,0,1,2.546-5.028,12.614,12.614,0,0,1,4.363-3.481,13.508,13.508,0,0,1,6.053-1.3,15.229,15.229,0,0,1,4.746.773l-1.093,2.685a10.321,10.321,0,0,0-2.108-.569,13.185,13.185,0,0,0-2-.159,9.159,9.159,0,0,0-4.354,1.024,9.769,9.769,0,0,0-3.258,2.776,12.194,12.194,0,0,0-1.98,4.05,14.715,14.715,0,0,0-.522,4.846,7.673,7.673,0,0,0,1.641,4.732,5.662,5.662,0,0,0,4.545,1.729,10.47,10.47,0,0,0,1.932-.182,15.865,15.865,0,0,0,1.782-.432,13.683,13.683,0,0,0,1.434-.523,5,5,0,0,0,.933-.5Z" transform="translate(-147.953 -304.438)" fill="#fff"/>
      <path id="Caminho_13" data-name="Caminho 13" d="M214.911,312.946a24,24,0,0,1,3.75-1.137,18.727,18.727,0,0,1,4.059-.455,14.379,14.379,0,0,1,2.014.136,9.282,9.282,0,0,1,1.849.455l-.635,2.685a12.667,12.667,0,0,0-3.68-.546,15.488,15.488,0,0,0-2.364.182,16.222,16.222,0,0,0-2.345.546l-3.9,20.612H210.7Z" transform="translate(-192.405 -304.438)" fill="#fff"/>
      <path id="Caminho_14" data-name="Caminho 14" d="M280.657,317.405a6.237,6.237,0,0,1-1.039,4.141,7.875,7.875,0,0,1-3.385,2.525,20.776,20.776,0,0,1-5.365,1.342q-3.154.409-7.027.591l.05.956a10.676,10.676,0,0,0,.4,2.457A4.916,4.916,0,0,0,265.4,331.4a5.368,5.368,0,0,0,2.1,1.342,9.7,9.7,0,0,0,3.384.5,11.619,11.619,0,0,0,3.2-.455,11.2,11.2,0,0,0,3.012-1.365l.463,2.73a13.523,13.523,0,0,1-3.356,1.342,14.994,14.994,0,0,1-3.766.478,12.5,12.5,0,0,1-4.259-.637,7.717,7.717,0,0,1-2.88-1.775,6.975,6.975,0,0,1-1.673-2.73,12.972,12.972,0,0,1-.641-3.5,18.993,18.993,0,0,1,.588-5.778,15.46,15.46,0,0,1,2.357-5.141,12.422,12.422,0,0,1,4.079-3.663,11.427,11.427,0,0,1,5.706-1.388,7.092,7.092,0,0,1,5,1.661A6.157,6.157,0,0,1,280.657,317.405Zm-7.074-3.367a7.7,7.7,0,0,0-3.387.751,9.461,9.461,0,0,0-2.772,2.025,12.246,12.246,0,0,0-2.061,2.957,13.525,13.525,0,0,0-1.207,3.549,51.06,51.06,0,0,0,6.506-.5,16.289,16.289,0,0,0,4.212-1.138,4.905,4.905,0,0,0,2.215-1.752,3.961,3.961,0,0,0,.562-2.343,3.436,3.436,0,0,0-1.213-2.662A4.458,4.458,0,0,0,273.583,314.039Z" transform="translate(-228.013 -304.438)" fill="#fff"/>
      <path id="Caminho_15" data-name="Caminho 15" d="M345.185,335.7a7.854,7.854,0,0,1-.543-1.251,9.394,9.394,0,0,1-.371-1.433,10.043,10.043,0,0,1-3.245,2.275,9.173,9.173,0,0,1-3.6.728,8.069,8.069,0,0,1-2.818-.5,6.727,6.727,0,0,1-2.415-1.547,8.281,8.281,0,0,1-1.767-2.708,11.614,11.614,0,0,1-.824-3.936,17.138,17.138,0,0,1,.843-6.6,13.442,13.442,0,0,1,3.05-5.028,13.907,13.907,0,0,1,4.86-3.208,16.745,16.745,0,0,1,6.272-1.138,16.1,16.1,0,0,1,5.49.955l-2.776,14.151q-.215,1.138-.345,2.138a10.512,10.512,0,0,0-.083,1.911,11.515,11.515,0,0,0,.35,2.321,12.469,12.469,0,0,0,.949,2.411Zm1.539-21.249q-.834-.181-1.525-.273a10.964,10.964,0,0,0-1.424-.091,10.542,10.542,0,0,0-8.533,3.958,11.889,11.889,0,0,0-2.1,4.049,13.584,13.584,0,0,0-.557,4.641,11.524,11.524,0,0,0,.529,3.117,5.719,5.719,0,0,0,1.112,2,4.114,4.114,0,0,0,1.546,1.092,4.933,4.933,0,0,0,1.827.341,7.061,7.061,0,0,0,3.479-.887,10.726,10.726,0,0,0,2.982-2.525,12.576,12.576,0,0,1,.218-2.821q.282-1.592.535-2.867Z" transform="translate(-276.622 -304.438)" fill="#fff"/>
      <path id="Caminho_16" data-name="Caminho 16" d="M410.783,288.178l3.07-.546-1.367,7.462h8.325l-.463,2.548h-8.392l-2.182,11.512a16.893,16.893,0,0,0-.3,1.752,10.729,10.729,0,0,0-.063,1.843,3.692,3.692,0,0,0,1.158,2.866,4.047,4.047,0,0,0,2.565.819,8.85,8.85,0,0,0,2.529-.318,16.271,16.271,0,0,0,2.226-.864l.416,2.685a18.323,18.323,0,0,1-2.724.864,12.919,12.919,0,0,1-3.026.364,9.093,9.093,0,0,1-2.258-.273,5.229,5.229,0,0,1-1.9-.91,4.851,4.851,0,0,1-1.369-1.684,6.549,6.549,0,0,1-.618-2.639,18.452,18.452,0,0,1,.4-4.5Z" transform="translate(-331.044 -287.632)" fill="#fff"/>
    </g>
    <path id="Caminho_17" data-name="Caminho 17" d="M164.348,181.482a4.333,4.333,0,0,0-3.1,1.3l-25.294-11.936a5.249,5.249,0,0,1-1.518-.915,4.617,4.617,0,0,1-1.157-1.973h0a4.36,4.36,0,1,0-3.148,5.5l0,0c2.652-.464,3.093-.705,4.59,0l25.3,11.926a4.348,4.348,0,1,0,4.325-3.9Z" transform="translate(-38.845)" fill="#fff"/>
    <circle id="Elipse_1" data-name="Elipse 1" cx="4.348" cy="4.348" r="4.348" transform="translate(69.945 199.756)" fill="#fff"/>
  </g>
</svg>
