<svg xmlns="http://www.w3.org/2000/svg" width="467" height="278" viewBox="0 0 467 278">
  <g id="QUADRANTE" transform="translate(-821.179 -480.222)">
    <g id="Grupo_27" data-name="Grupo 27" transform="translate(821 539.171)">
      <g id="Retângulo_12" data-name="Retângulo 12" transform="translate(0.179 0.051)" fill="#012d76" stroke="#fff" stroke-width="2">
        <rect width="419" height="219" stroke="none"/>
        <rect x="1" y="1" width="417" height="217" fill="none"/>
      </g>
      <rect id="Retângulo_11" data-name="Retângulo 11" width="419" height="22" transform="translate(0.179 0.051)" fill="#fff"/>
    </g>
    <g id="Grupo_26" data-name="Grupo 26" transform="translate(833.949 519.158)">
      <g id="Retângulo_12-2" data-name="Retângulo 12" transform="translate(0.229 0.064)" fill="#012d76" stroke="#fff" stroke-width="2">
        <rect width="419" height="219" stroke="none"/>
        <rect x="1" y="1" width="417" height="217" fill="none"/>
      </g>
      <rect id="Retângulo_11-2" data-name="Retângulo 11" width="419" height="22" transform="translate(0.229 0.064)" fill="#fff"/>
    </g>
    <g id="Grupo_25" data-name="Grupo 25" transform="translate(852.785 500.322)">
      <g id="Retângulo_12-3" data-name="Retângulo 12" transform="translate(0.394 -0.1)" fill="#012d76" stroke="#fff" stroke-width="2">
        <rect width="419" height="219" stroke="none"/>
        <rect x="1" y="1" width="417" height="217" fill="none"/>
      </g>
      <rect id="Retângulo_11-3" data-name="Retângulo 11" width="419" height="22" transform="translate(0.394 -0.1)" fill="#fff"/>
    </g>
    <g id="Grupo_24" data-name="Grupo 24" transform="translate(869.266 480.31)">
      <g id="Retângulo_12-4" data-name="Retângulo 12" transform="translate(-0.087 -0.088)" fill="#012d76" stroke="#fff" stroke-width="2">
        <rect width="419" height="219" stroke="none"/>
        <rect x="1" y="1" width="417" height="217" fill="none"/>
      </g>
      <rect id="Retângulo_11-4" data-name="Retângulo 11" width="419" height="22" transform="translate(-0.087 -0.088)" fill="#fff"/>
    </g>
  </g>
</svg>
